<?xml version="1.0" encoding="utf-8"?>
<!-- Generator: Adobe Illustrator 18.0.0, SVG Export Plug-In . SVG Version: 6.00 Build 0)  -->
<!DOCTYPE svg PUBLIC "-//W3C//DTD SVG 1.1//EN" "http://www.w3.org/Graphics/SVG/1.1/DTD/svg11.dtd">
<svg version="1.1" id="Facebook_w_x2F__circle" xmlns="http://www.w3.org/2000/svg" xmlns:xlink="http://www.w3.org/1999/xlink"
	 x="0px" y="0px" viewBox="0 0 792 612" enable-background="new 0 0 792 612" xml:space="preserve">
<g id="XMLID_1_">
	<g>
		<path fill="#192327" d="M396,12.2c162.2,0,293.8,131.5,293.8,293.8S558.2,599.8,396,599.8S102.2,468.2,102.2,306
			S233.8,12.2,396,12.2z M457.3,308.6l8.4-45.5h-55.2v-31.9c0-9.1,5.8-16,11-16h44.1v-48.4h-44.1c-36.5,0-63.2,31.2-63.2,69.6v26.7
			H311v45.5h47.3v136.5h52.1V308.6H457.3z"/>
		<path fill="#9D967D" d="M465.6,263.2l-8.4,45.5h-46.9v136.5h-52.1V308.6H311v-45.5h47.3v-26.7c0-38.4,26.6-69.6,63.2-69.6h44.1
			v48.4h-44.1c-5.2,0-11,6.9-11,16v31.9H465.6z"/>
	</g>
	<g>
	</g>
</g>
</svg>
