<?xml version="1.0" encoding="utf-8"?>
<!-- Generator: Adobe Illustrator 18.0.0, SVG Export Plug-In . SVG Version: 6.00 Build 0)  -->
<!DOCTYPE svg PUBLIC "-//W3C//DTD SVG 1.1//EN" "http://www.w3.org/Graphics/SVG/1.1/DTD/svg11.dtd">
<svg version="1.1" id="Facebook" xmlns="http://www.w3.org/2000/svg" xmlns:xlink="http://www.w3.org/1999/xlink" x="0px" y="0px"
	 viewBox="0 0 792 612" enable-background="new 0 0 792 612" xml:space="preserve">
<g id="XMLID_1_">
	<g>
		<path fill="#9D967D" d="M671.4,91.8v428.4c0,33.7-27.5,61.2-61.2,61.2H487.8V367.2H549l17.4-75.7h-78.6v-51.7
			c0-21.2,11.6-44,42-44h36.6v-79.7l-55.2-0.1C433.1,116,396,162.5,396,228.7v62.7h-61.2v75.7H396v214.2H181.8
			c-33.7,0-61.2-27.5-61.2-61.2V91.8c0-33.7,27.5-61.2,61.2-61.2h428.4C643.9,30.6,671.4,58.1,671.4,91.8z"/>
	</g>
	<g>
	</g>
</g>
</svg>
