<?xml version="1.0" encoding="utf-8"?>
<!-- Generator: Adobe Illustrator 18.0.0, SVG Export Plug-In . SVG Version: 6.00 Build 0)  -->
<!DOCTYPE svg PUBLIC "-//W3C//DTD SVG 1.1//EN" "http://www.w3.org/Graphics/SVG/1.1/DTD/svg11.dtd">
<svg version="1.1" id="Github" xmlns="http://www.w3.org/2000/svg" xmlns:xlink="http://www.w3.org/1999/xlink" x="0px" y="0px"
	 viewBox="0 0 792 612" enable-background="new 0 0 792 612" xml:space="preserve">
<g id="XMLID_1_">
	<g>
		<path fill="#9D967D" d="M631.8,202.8c28.4,30.8,45.7,67.9,45.7,118.4c0,219.9-182.4,223.4-228.5,223.4c-10.4,0-31.1,0.1-53,0.1
			c-21.9,0-42.6-0.1-53.1-0.1c-46,0-228.5-3.5-228.5-223.4c0-50.5,17.3-87.6,45.7-118.4c-4.5-11.2-4.8-74.6,19.4-135.4
			c0,0,55.4,6.1,139.3,63.7c17.6-4.9,47.3-7.3,77.1-7.3c29.7,0,59.5,2.4,77.1,7.3C557,73.4,612.4,67.3,612.4,67.3
			C636.5,128.1,636.4,191.6,631.8,202.8z M602.2,391.7c0-26.9-9.5-51.8-32-72.5c-37.6-34.5-101.2-16.2-173.3-16.2
			c-0.3,0-0.5,0-0.8,0c-0.3,0-0.6,0-0.9,0c-72.1,0-135.7-18.2-173.3,16.2c-22.6,20.7-32,45.6-32,72.5
			c0,112.2,89.9,125.9,205.3,125.9h1.7C512.3,517.6,602.2,503.9,602.2,391.7z"/>
		<path fill="#9D967D" d="M533.1,401.1c0,30.4-17.8,55.1-39.8,55.1c-22,0-39.8-24.7-39.8-55.1c0-30.4,17.8-55,39.8-55
			C515.3,346.1,533.1,370.8,533.1,401.1z"/>
		<path fill="#9D967D" d="M298.7,346.1c22,0,39.8,24.7,39.8,55c0,30.4-17.8,55.1-39.8,55.1c-22,0-39.8-24.7-39.8-55.1
			C258.9,370.8,276.8,346.1,298.7,346.1z"/>
	</g>
	<g>
	</g>
</g>
</svg>
