<?xml version="1.0" encoding="utf-8"?>
<!-- Generator: Adobe Illustrator 18.0.0, SVG Export Plug-In . SVG Version: 6.00 Build 0)  -->
<!DOCTYPE svg PUBLIC "-//W3C//DTD SVG 1.1//EN" "http://www.w3.org/Graphics/SVG/1.1/DTD/svg11.dtd">
<svg version="1.1" id="Instagram" xmlns="http://www.w3.org/2000/svg" xmlns:xlink="http://www.w3.org/1999/xlink" x="0px" y="0px"
	 viewBox="0 0 792 612" enable-background="new 0 0 792 612" xml:space="preserve">
<g id="XMLID_1_">
	<g>
		<path fill="#9D967D" d="M671.4,91.8v428.4c0,33.7-27.5,61.2-61.2,61.2H181.8c-33.7,0-61.2-27.5-61.2-61.2V91.8
			c0-33.7,27.5-61.2,61.2-61.2h428.4C643.9,30.6,671.4,58.1,671.4,91.8z M610.2,496.2V275.4h-48.4c1.8,9.8,3.1,19.8,3.1,30.1
			c0,93.6-75.8,169.5-169.5,169.5C301.9,475,226,399.1,226,305.5c0-10.3,1.3-20.3,3.2-30.1h-47.4v220.8c0,11.7,9.5,21.1,21.2,21.1
			h386C600.7,517.3,610.2,507.9,610.2,496.2z M610.2,162.4v-49.4c0-11.7-9.5-21.1-21.2-21.1h-49.4c-11.6,0-21.1,9.5-21.1,21.1v49.5
			c0,11.6,9.5,21.2,21.2,21.2H589C600.7,183.6,610.2,174.1,610.2,162.4z M501.5,305.5c0-58.5-47.5-105.9-105.9-105.9
			c-58.5,0-105.9,47.4-105.9,105.9S337,411.5,395.5,411.5C454,411.5,501.5,364,501.5,305.5z"/>
	</g>
	<g>
	</g>
</g>
</svg>
