<?xml version="1.0" encoding="utf-8"?>
<!-- Generator: Adobe Illustrator 18.0.0, SVG Export Plug-In . SVG Version: 6.00 Build 0)  -->
<!DOCTYPE svg PUBLIC "-//W3C//DTD SVG 1.1//EN" "http://www.w3.org/Graphics/SVG/1.1/DTD/svg11.dtd">
<svg version="1.1" id="LinkedIn" xmlns="http://www.w3.org/2000/svg" xmlns:xlink="http://www.w3.org/1999/xlink" x="0px" y="0px"
	 viewBox="0 0 792 612" enable-background="new 0 0 792 612" xml:space="preserve">
<g id="XMLID_1_">
	<g>
		<path fill="#9D967D" d="M671.4,355v226.4H549V370.3c0-49-18.4-85.7-61.2-85.7c-33.7,0-49,27.5-58.1,49c-3.1,9.2-3.1,18.4-3.1,30.6
			v217.3H304.2V318.2c0-45.9-3.1-85.7-3.1-119.3h110.2l6.1,52h3.1c15.3-24.5,52-61.2,116.3-61.2C613.3,189.7,671.4,241.7,671.4,355z
			"/>
		<rect x="120.6" y="183.6" fill="#9D967D" width="122.4" height="397.8"/>
		<path fill="#9D967D" d="M243,91.8c0,33.7-21.4,61.2-61.2,61.2c-36.7,0-61.2-27.5-61.2-58.1c0-33.7,24.5-64.3,61.2-64.3
			S243,58.1,243,91.8z"/>
	</g>
	<g>
	</g>
</g>
</svg>
