<?xml version="1.0" encoding="utf-8"?>
<!-- Generator: Adobe Illustrator 18.0.0, SVG Export Plug-In . SVG Version: 6.00 Build 0)  -->
<!DOCTYPE svg PUBLIC "-//W3C//DTD SVG 1.1//EN" "http://www.w3.org/Graphics/SVG/1.1/DTD/svg11.dtd">
<svg version="1.1" id="Mail" xmlns="http://www.w3.org/2000/svg" xmlns:xlink="http://www.w3.org/1999/xlink" x="0px" y="0px"
	 viewBox="0 0 792 612" enable-background="new 0 0 792 612" xml:space="preserve">
<g id="XMLID_1_">
	<g>
		<path fill="#9D967D" d="M671.4,235.9c0,5.6,0,223.1,0,223.1c0,12.9-17.3,30.6-30.6,30.6H151.2c-13.3,0-30.6-17.8-30.6-30.6
			c0,0,0-217.5,0-223.2s-0.1-12.9,11.8-6.7c17,8.8,224.9,117.8,235.2,123.3c10.4,5.4,17.7,6.1,27.7,6.1c10,0,17.3-0.6,27.7-6.1
			c10.4-5.5,219.5-114.4,236.5-123.2C671.5,222.9,671.4,230.2,671.4,235.9z"/>
		<path fill="#9D967D" d="M654.3,122.4c27.5,0,13.3,31.3-1.7,39.3c-14.9,8-221.8,119.2-229.5,123.3c-7.7,4.1-17.7,6.1-27.7,6.1
			c-10,0-20-2-27.7-6.1c-7.7-4.1-214.6-115.3-229.5-123.3c-14.9-8.1-29.1-39.3-1.6-39.3H654.3z"/>
	</g>
	<g>
	</g>
</g>
</svg>
