<?xml version="1.0" encoding="utf-8"?>
<!-- Generator: Adobe Illustrator 18.0.0, SVG Export Plug-In . SVG Version: 6.00 Build 0)  -->
<!DOCTYPE svg PUBLIC "-//W3C//DTD SVG 1.1//EN" "http://www.w3.org/Graphics/SVG/1.1/DTD/svg11.dtd">
<svg version="1.1" id="Spotify" xmlns="http://www.w3.org/2000/svg" xmlns:xlink="http://www.w3.org/1999/xlink" x="0px" y="0px"
	 viewBox="0 0 792 612" enable-background="new 0 0 792 612" xml:space="preserve">
<g>
	<g id="XMLID_1_">
		<g>
			<path fill="#9D967D" d="M396,36.7c148.8,0,269.2,120.5,269.2,269.3c0,148.7-120.5,269.3-269.2,269.3
				c-148.8,0-269.3-120.6-269.3-269.3C126.7,157.2,247.2,36.7,396,36.7z M590.2,248c0-12.1-5-20.9-15.1-26.7
				c-54-31.7-132-49.9-213.9-49.9c-45.5,0-86.8,5.4-122.6,15.9c-13,3.9-20.8,14.4-20.8,28.3c0,15.9,12.3,28.4,28.1,28.4
				c4.1,0,8-1.1,11.2-2.1c1-0.3,2-0.6,3-0.8c29.7-8,63.7-12.1,101.2-12.1c71.9,0,141.2,15.9,185.7,42.6c5.5,3,9.2,4.4,15.2,4.4
				C577.9,276,590.2,263.7,590.2,248z M554.3,341.4c0-10.9-4.2-18.2-13.6-23.6C489.2,287,423.6,270,355.9,270
				c-41.9,0-71,5.6-102,14.1c-12.1,3.4-18.8,12.4-18.8,25.2c0,13.3,10.7,24.1,24,24.1c4,0,6.8-1,9.8-1.9c1.1-0.4,2.3-0.7,3.7-1.1
				c80.4-21.4,178-8.5,243.6,30.4c3.7,2.1,7.8,4.6,14.2,4.6C543.5,365.4,554.3,354.6,554.3,341.4z M522.4,423.8
				c0-11.1-4.7-16.1-12.1-20.4c-43.4-26-94.1-39.1-150.9-39.1c-31.3,0-62.9,3.7-96.4,11.4c-10.8,2-17.2,10.1-17.2,21.5
				c0,11.3,8.9,20.1,20.2,20.1c2.8,0,6.4-1,10-1.8l3.4-0.8c28.1-5.8,55-8.7,79.9-8.7c48.8,0,93.9,11.6,130.3,33.6
				c3.9,2.3,7.6,4.4,12.9,4.4C513.4,443.8,522.4,434.8,522.4,423.8z"/>
		</g>
		<g>
		</g>
	</g>
</g>
</svg>
