<?xml version="1.0" encoding="utf-8"?>
<!-- Generator: Adobe Illustrator 18.0.0, SVG Export Plug-In . SVG Version: 6.00 Build 0)  -->
<!DOCTYPE svg PUBLIC "-//W3C//DTD SVG 1.1//EN" "http://www.w3.org/Graphics/SVG/1.1/DTD/svg11.dtd">
<svg version="1.1" id="Twitter" xmlns="http://www.w3.org/2000/svg" xmlns:xlink="http://www.w3.org/1999/xlink" x="0px" y="0px"
	 viewBox="0 0 792 612" enable-background="new 0 0 792 612" xml:space="preserve">
<g id="XMLID_1_">
	<g>
		<path fill="#9D967D" d="M677.5,131.4c-15.5,23.2-35.1,43.5-57.7,59.8c0.2,4.9,0.3,10,0.3,14.9c0,152.7-116.2,328.7-328.7,328.7
			c-65.3,0-125.9-19.1-177.1-51.9c9.1,1.1,18.2,1.6,27.5,1.6c54.2,0,103.9-18.5,143.4-49.4c-50.5-1-93.2-34.3-107.9-80.2
			c7,1.3,14.3,2,21.7,2c10.6,0,20.8-1.4,30.4-4c-52.9-10.6-92.7-57.3-92.7-113.3c0-0.5,0-0.9,0-1.4c15.6,8.7,33.4,13.9,52.3,14.5
			c-31-20.7-51.4-56.1-51.4-96.2c0-21.1,5.7-41,15.7-58.1c57,69.9,142.1,115.9,238.1,120.7c-2-8.5-3-17.2-3-26.3
			c0-63.8,51.7-115.5,115.5-115.5c33.2,0,63.2,14,84.3,36.4c26.3-5.2,51-14.8,73.3-28c-8.6,27-27,49.6-50.8,63.9
			C634.6,146.7,656.8,140.6,677.5,131.4z"/>
	</g>
	<g>
	</g>
</g>
</svg>
